<?xml version="1.0" encoding="utf-8"?>
<!-- Generator: Adobe Illustrator 22.1.0, SVG Export Plug-In . SVG Version: 6.00 Build 0)  -->
<svg version="1.1" id="Ebene_1" xmlns="http://www.w3.org/2000/svg" xmlns:xlink="http://www.w3.org/1999/xlink" x="0px" y="0px"
	 viewBox="0 0 164 82" style="enable-background:new 0 0 164 82;" xml:space="preserve">
<style type="text/css">
	.st0{fill:#6D6E71;}
	.st1{fill:#707072;}
	.st2{fill:#FC1921;}
</style>
<g id="Layer_1">
	<g>
		<path class="st0" d="M20.2,49.9h2.3c1.7,0,2.5,1,2.5,2.3c0,1-0.6,1.7-1.5,2l0,0c1,0.1,1.7,1,1.7,2.2s-0.8,2.5-2.8,2.5h-2.2V49.9z
			 M21.4,53.8h0.7c1.3,0,1.8-0.6,1.8-1.5c0-0.8-0.5-1.4-1.6-1.4h-0.9V53.8z M21.4,58h1c1.2,0,1.7-0.8,1.7-1.6c0-0.9-0.5-1.6-1.6-1.6
			h-1.1V58z"/>
		<path class="st0" d="M27.9,49.6v1.3h-1.2v-1.3H27.9z M26.8,52.3h1.1v6.6h-1.1V52.3z"/>
		<path class="st0" d="M31.9,52.3c1.7,0,2.6,1.3,2.6,3.4c0,2.1-0.9,3.4-2.6,3.4s-2.6-1.3-2.6-3.4C29.2,53.6,30.1,52.3,31.9,52.3z
			 M31.9,58.1c1,0,1.5-0.8,1.5-2.5s-0.5-2.5-1.5-2.5s-1.5,0.8-1.5,2.5S30.8,58.1,31.9,58.1z"/>
		<path class="st0" d="M38.6,58.8C38.3,58.9,38,59,37.7,59c-1,0-1.5-0.4-1.5-1.6v-4.2h-1v-0.9h1V51l1.1-0.3v1.7h1.4v0.9h-1.4v3.9
			c0,0.7,0.2,1,0.7,1c0.3,0,0.5-0.1,0.7-0.2L38.6,58.8L38.6,58.8z"/>
		<path class="st0" d="M39.6,49.3h1.1v4l0,0c0.3-0.6,0.8-1,1.6-1c1.1,0,1.9,0.7,1.9,2.1V59h-1.1v-4.2c0-1-0.4-1.5-1.1-1.5
			c-0.8,0-1.4,0.6-1.4,1.8V59h-1.1L39.6,49.3L39.6,49.3z"/>
		<path class="st0" d="M46.6,55.9c0,1.5,0.6,2.2,1.8,2.2c0.5,0,1.1-0.3,1.5-0.5l0.1,1c-0.5,0.2-1.2,0.4-1.8,0.4
			c-1.7,0-2.6-1.3-2.6-3.4c0-2.1,0.9-3.4,2.5-3.4c1.5,0,2.3,1.2,2.3,3.1v0.6L46.6,55.9L46.6,55.9z M49.2,55.1c0-1.4-0.4-2-1.3-2
			c-0.7,0-1.3,0.5-1.3,2H49.2z"/>
		<path class="st0" d="M51.5,53.8c0-0.5,0-1-0.1-1.4h1v1l0,0c0.3-0.8,0.9-1.1,1.9-1.1v1.1c-0.1,0-0.3,0-0.4,0
			c-0.8,0-1.4,0.7-1.4,2.1V59h-1L51.5,53.8L51.5,53.8z"/>
		<path class="st0" d="M55.5,52.8c0.5-0.3,1.2-0.5,1.9-0.5c1,0,1.5,0.4,1.7,0.6c0.3,0.3,0.6,0.7,0.6,1.6v3.4c0,0.4,0,0.8,0.1,1h-1
			L58.7,58l0,0c-0.3,0.5-0.8,1-1.8,1c-1.1,0-1.9-0.6-1.9-1.9c0-1.3,0.8-2.2,3.1-2.2h0.6v-0.3c0-0.5,0-0.8-0.2-1.1s-0.6-0.4-1.1-0.4
			c-0.7,0-1.3,0.3-1.7,0.7L55.5,52.8z M58.7,55.7c-0.2,0-0.5,0-0.8,0c-1.3,0-1.9,0.6-1.9,1.4c0,0.7,0.4,1.1,1.1,1.1
			c0.9,0,1.5-0.8,1.5-1.7v-0.8H58.7z"/>
		<path class="st0" d="M61.1,53.6c0-0.4,0-0.8-0.1-1.2h1v1l0,0c0.3-0.5,0.8-1.1,1.7-1.1c1.4,0,2.3,1.1,2.3,3.4
			c0,2.3-0.9,3.4-2.3,3.4c-0.7,0-1.2-0.3-1.7-1l0,0v3.7h-0.9L61.1,53.6L61.1,53.6z M63.6,58.1c1,0,1.4-0.8,1.4-2.5s-0.5-2.5-1.4-2.5
			c-1,0-1.4,0.8-1.4,2.5S62.6,58.1,63.6,58.1z"/>
		<path class="st0" d="M68.6,49.6v1.3h-1.2v-1.3H68.6z M67.5,52.3h1.1v6.6h-1.1V52.3z"/>
		<path class="st0" d="M71.1,55.9c0,1.5,0.6,2.2,1.8,2.2c0.5,0,1.1-0.3,1.5-0.5l0.1,1C74,58.8,73.3,59,72.7,59
			c-1.7,0-2.6-1.3-2.6-3.4c0-2.1,0.9-3.4,2.5-3.4c1.5,0,2.3,1.2,2.3,3.1v0.6L71.1,55.9L71.1,55.9z M73.7,55.1c0-1.4-0.4-2-1.3-2
			c-0.7,0-1.3,0.5-1.3,2H73.7z"/>
		<path class="st0" d="M75.7,57.6c0.5,0.3,1,0.5,1.5,0.5c0.8,0,1.2-0.4,1.2-0.9s-0.2-0.8-0.8-1l-0.7-0.3c-0.9-0.4-1.3-0.8-1.3-1.7
			c0-1.1,0.8-1.9,2.1-1.9c0.5,0,1,0.1,1.4,0.2L79,53.4c-0.3-0.2-0.8-0.3-1.3-0.3c-0.7,0-1.1,0.4-1.1,0.9s0.4,0.8,1.1,1.1l0.4,0.2
			c0.8,0.3,1.3,0.9,1.3,1.7c0,1.1-0.6,2-2.1,2c-0.7,0-1.3-0.1-1.8-0.4L75.7,57.6z"/>
		<path class="st0" d="M84.3,53.2h-1v-0.9h1v-1.5c0-1.1,0.5-1.8,1.6-1.8c0.3,0,0.6,0,0.8,0.1V50c-0.1-0.1-0.4-0.2-0.6-0.2
			c-0.6,0-0.8,0.3-0.8,1v1.4h1.2v0.9h-1.2v5.7h-1.1v-5.6H84.3z"/>
		<path class="st0" d="M89.7,52.3c1.7,0,2.6,1.3,2.6,3.4c0,2.1-0.9,3.4-2.6,3.4c-1.7,0-2.6-1.3-2.6-3.4S88,52.3,89.7,52.3z
			 M89.7,58.1c1,0,1.5-0.8,1.5-2.5s-0.5-2.5-1.5-2.5s-1.5,0.8-1.5,2.5S88.7,58.1,89.7,58.1z"/>
		<path class="st0" d="M93.6,53.8c0-0.5,0-1-0.1-1.4h1v1l0,0c0.3-0.8,0.9-1.1,1.9-1.1v1.1c-0.1,0-0.3,0-0.4,0
			c-0.8,0-1.4,0.7-1.4,2.1V59h-1.1v-5.2H93.6z"/>
		<path class="st0" d="M100.7,49.9h1.1v8h2.9v1h-4.1v-9H100.7z"/>
		<path class="st0" d="M107,49.6v1.3h-1.2v-1.3H107z M105.8,52.3h1.1v6.6h-1.1V52.3z"/>
		<path class="st0" d="M109,53.2h-1v-0.9h1v-1.5c0-1.1,0.5-1.8,1.6-1.8c0.3,0,0.6,0,0.8,0.1V50c-0.1-0.1-0.4-0.2-0.6-0.2
			c-0.6,0-0.8,0.3-0.8,1v1.4h1.2v0.9H110v5.7h-1.1v-5.6H109z"/>
		<path class="st0" d="M113,55.9c0,1.5,0.6,2.2,1.8,2.2c0.5,0,1.1-0.3,1.5-0.5l0.1,1c-0.5,0.2-1.2,0.4-1.8,0.4
			c-1.7,0-2.6-1.3-2.6-3.4c0-2.1,0.9-3.4,2.5-3.4c1.5,0,2.3,1.2,2.3,3.1v0.6L113,55.9L113,55.9z M115.6,55.1c0-1.4-0.4-2-1.3-2
			c-0.7,0-1.3,0.5-1.3,2H115.6z"/>
	</g>
	<g>
		<path class="st1" d="M118.1,47.8h-1v-0.4h2.6v0.4h-1v3h-0.5v-3H118.1z M120.3,47.4h0.8l1,2.6l1-2.6h0.8v3.3h-0.5v-2.9l0,0
			l-1.1,2.9H122l-1.1-2.9l0,0v2.9h-0.5L120.3,47.4L120.3,47.4z"/>
	</g>
</g>
<g id="Layer_2">
	<g>
		<path class="st2" d="M32.5,39.2c-0.7,0.4-2.4,0.7-4.2,0.7c-5.9,0-8.9-4.3-8.9-9.9c0-5.6,3-9.9,8.8-9.9c2,0,3.6,0.5,4.3,0.8
			l-0.2,3.2c-0.7-0.4-1.9-1.1-3.6-1.1c-2.9,0-5.4,2-5.4,7s2.5,7,5.4,7c1.7,0,2.8-0.4,3.6-1L32.5,39.2z"/>
		<path class="st2" d="M34.2,35.8c0.7,0.4,2.2,1.2,4.1,1.2c1.5,0,2.9-0.9,2.9-2.8c0-1.4-0.8-2-2.5-2.9l-1.8-1
			c-1.9-1.1-3.2-2.6-3.2-5.1c0-3.5,2.8-5.3,6.1-5.3c2,0,3.5,0.5,4,0.7l-0.2,3c-0.9-0.3-2-0.8-3.6-0.8c-1.8,0-2.7,0.9-2.7,2.3
			c0,1.4,1,2,2,2.6l2.1,1.2c2.3,1.3,3.3,2.5,3.3,5.2c0,3.9-2.8,5.8-6.5,5.8c-1.9,0-3.4-0.3-4.4-0.9L34.2,35.8z"/>
		<path class="st2" d="M47,20.3h3.5v16.5h6.4v2.8H47V20.3z"/>
	</g>
	<path class="st2" d="M67.5,22.8h1.7c1.7,0,2.9,1,2.9,2.6s-1,2.9-2.8,2.9h-1.8L67.5,22.8L67.5,22.8z M67.5,30.9h1.9
		c2.2,0,3.1,1.3,3.1,3c0,1.8-1.1,3-3,3h-2V30.9z M64,39.6h5.9c3.4,0,6-1.9,6-5.4c0-3.2-2.2-4.3-3.7-4.6v-0.1
		c1.3-0.5,3.2-1.4,3.2-4.5c0-3.3-1.8-4.8-5.8-4.8h-5.7v19.4H64z"/>
	<path class="st2" d="M80.8,31.2c0-1.9,0.7-3.8,2.6-3.8c1.6,0,2.4,1.3,2.4,3.8H80.8z M88.1,36.2c-0.6,0.5-1.6,1.1-3.7,1.1
		c-2.7,0-3.6-1.5-3.6-3.9h8.3v-0.7c0-5.8-2.6-7.6-5.7-7.6c-3.6,0-5.9,3.3-5.9,7.6c0,3.9,2,7.2,6.6,7.2c2.1,0,3.6-0.6,4.3-0.9
		L88.1,36.2z"/>
	<path class="st2" d="M90.6,19.9H94v7.2h0.1c0.6-0.9,1.4-2.1,3.5-2.1c3.2,0,4.2,2.4,4.2,5.3v9.2h-3.4v-8.6c0-2.2-0.6-3.1-2-3.1
		c-1.8,0-2.4,1.5-2.4,3.4v8.3h-3.4L90.6,19.9L90.6,19.9z"/>
	<path class="st2" d="M104,27.7c0-0.9,0-1.7-0.1-2.4h3.1c0,0.9,0.1,1.7,0.1,2.6l0,0c0.4-1.1,1.5-2.8,3.6-2.8c0.2,0,0.4,0.1,0.6,0.1
		v3.2c-0.3-0.1-0.6-0.1-1-0.1c-1.4,0-3,0.9-3,3.5v7.8l-3.3,0V27.7L104,27.7z"/>
	<path class="st2" d="M112.8,25.3h3.4v14.3h-3.4V25.3z M112.8,19.9h3.6v3.4h-3.6V19.9z"/>
	<path class="st2" d="M118.6,27.7c0-0.9,0-1.7-0.1-2.4h3.2c0,0.7,0.1,1.5,0.1,2.2h0.1l0,0c0.5-0.9,1.5-2.4,3.8-2.4
		c3.2,0,4.2,2.4,4.2,5.3v9.2h-3.4V31c0-2.2-0.6-3.1-2-3.1c-1.8,0-2.4,1.5-2.4,3.4v8.3h-3.5L118.6,27.7L118.6,27.7z"/>
	<path class="st2" d="M135.1,32.3c0-2.9,0.7-4.6,2.5-4.6c1.6,0,2.8,1.6,2.8,4.6c0,3.2-0.9,4.8-3,4.8
		C136.1,37.1,135.1,35.6,135.1,32.3z M132.1,44.8c0.8,0.3,2.6,0.9,4.9,0.9c5.2,0,6.6-3.2,6.6-7.7V27.5c0-0.8,0.1-1.5,0.1-2.2h-3.1
		c0,0.7-0.1,1.5-0.1,2.2h-0.1c-0.7-1.2-1.7-2.4-3.8-2.4c-3.7,0-5.2,3.5-5.2,7.4c0,5.8,3,7.1,5,7.1c2.2,0,3.2-1.3,3.8-2.4h0.1v1.4
		c0,2.2-0.5,4.5-3.8,4.5c-1.8,0-3.4-0.8-4.2-1.2L132.1,44.8z"/>
</g>
</svg>
