<?xml version="1.0" encoding="utf-8"?>
<!-- Generator: Adobe Illustrator 24.0.0, SVG Export Plug-In . SVG Version: 6.00 Build 0)  -->
<svg version="1.1" id="Layer_1" xmlns="http://www.w3.org/2000/svg" xmlns:xlink="http://www.w3.org/1999/xlink" x="0px" y="0px"
	 viewBox="0 0 136 35" style="enable-background:new 0 0 136 35;" xml:space="preserve">
<style type="text/css">
	.st0{fill:#133D54;}
</style>
<title>Amgen</title>
<desc>Created with Sketch.</desc>
<g>
	<path class="st0" d="M15.1,7V5.2c0,0,0.4-2.7-4.2-2.7c-4.7,0-4.4,2.7-4.4,2.7v9c0,0-0.3,2.6,4.4,2.6c4,0,4.2-1.2,4.2-1.2v-4h-4.2
		V9.2h8.9v6.4c0,0-1.8,3.6-8.9,3.6c-8.4,0-9.1-5-9.1-5v-9c0,0,0.4-5,9.1-5c9.4,0,8.9,5,8.9,5V7H15.1L15.1,7z M104.7,9.4
		c0,0,0.3-3.6-6.9-3.6c-7.2,0-6.9,3.6-6.9,3.6v6.2c0,0-0.3,3.6,6.9,3.6s6.9-3.6,6.9-3.6v-1h-3.8v1c0,0,0,1.5-3.1,1.5
		s-3.1-1.5-3.1-1.5v-2.2h10V9.4z M97.8,7.9c3.1,0,3.1,1.6,3.1,1.6v1.4h-6.2V9.5C94.7,9.5,94.7,7.9,97.8,7.9 M119.8,11.1V9.4
		c0,0,0.3-3.6-6.9-3.6c-7.2,0-6.9,3.6-6.9,3.6v6.2c0,0-0.3,3.6,6.9,3.6c7.2,0,6.9-3.6,6.9-3.6v-1.5H116v1.6c0,0,0,1.5-3.1,1.5
		s-3.1-1.5-3.1-1.5V9.6c0,0,0-1.6,3.2-1.6c3,0,3,1.5,3,1.5v1.6L119.8,11.1z M81,8.3h1.2v7.4c0,3.3,4.5,3.6,7.8,3.2v-1.8
		c-3.8,0.5-4-1.4-4-1.4V8.3h4.2v-2H86V3.4h-3.8v2.9H81V8.3z M65.1,9.4c0,0,0.3-3.6-6.9-3.6s-6.9,3.6-6.9,3.6v6.2
		c0,0-0.3,3.6,6.9,3.6s6.9-3.6,6.9-3.6v-1h-3.8v1c0,0,0,1.5-3.1,1.5s-3.1-1.5-3.1-1.5v-2.2h10L65.1,9.4L65.1,9.4z M58.2,7.9
		c3.1,0,3.1,1.6,3.1,1.6v1.4h-6.2V9.5C55.1,9.5,55.1,7.9,58.2,7.9 M35,9.4c0,0,0.3-3.6-6.9-3.6s-6.9,3.6-6.9,3.6v6.2
		c0,0-0.3,3.6,6.9,3.6s6.9-3.6,6.9-3.6v-1h-3.8v1c0,0,0,1.5-3.1,1.5S25,15.6,25,15.6v-2.2h10V9.4z M28.1,7.9c3.1,0,3.1,1.6,3.1,1.6
		v1.4H25V9.5C25,9.5,25,7.9,28.1,7.9 M121.3,18.6h3.8V9.2c0,0,0-1.6,3.1-1.6s3.1,1.5,3.1,1.5v9.4h3.8V8.8c0,0-0.2-3.2-6.9-3.2
		c-1.2,0-2.2,0.1-3.1,0.3V0.3h-3.8L121.3,18.6L121.3,18.6z M43.1,5.6c-2.3,0-3.8,0.4-4.9,0.9h-2v12.1H40V9.2c0,0,0-1.6,3.1-1.6
		s3.1,1.5,3.1,1.5v9.4H50V8.8C50,8.8,49.9,5.6,43.1,5.6 M73.2,5.6c-2.3,0-3.8,0.4-4.9,0.9h-2v12.1h3.8V9.2c0,0,0-1.6,3.1-1.6
		s3.1,1.5,3.1,1.5v9.4h3.8V8.8C80.2,8.8,80,5.6,73.2,5.6"/>
	<path class="st0" d="M7.6,25.2L8,27.1c0.2,1.3,0.4,2.6,0.6,3.8c0.1,0.8,0.3,0.9,0.9,1v0.3H6.8V32h0.4c0.4,0,0.4-0.2,0.4-0.6
		l-0.3-1.5h-2c-0.2,0.3-0.5,0.9-0.7,1.4C4.3,31.9,4.4,32,4.8,32h0.4L5,32.3H2.7V32c0.6-0.1,0.8-0.2,1.3-1.1l3.1-5.5L7.6,25.2z
		 M5.5,29.3h1.7l-0.4-2.4l0,0L5.5,29.3z M16.3,25.4l1.4,5.1l3.2-5.1h2l-0.1,0.3c-0.8,0.1-0.9,0.1-1.1,1.3L21,30.7
		c-0.2,1.2-0.2,1.2,0.7,1.3l-0.1,0.3h-2.9V32c0.8-0.1,0.9-0.1,1.1-1.3l0.7-4.1l0,0l-3.4,5.6h-0.3l-1.3-5.4l0,0l-0.6,2.7
		c-0.2,1-0.3,1.6-0.4,1.9c0,0.4,0.2,0.5,0.9,0.5v0.3h-2.5v-0.3c0.5,0,0.8-0.2,1-0.5c0.1-0.3,0.3-0.9,0.6-2l0.6-2.3
		c0.3-1.3,0.2-1.4-0.7-1.5l0.1-0.3L16.3,25.4L16.3,25.4z M26.2,31.2c-1,1.1-2,1.2-2.4,1.2c-0.5,0-1.2-0.3-1.2-1.6
		c0-1,0.5-2.1,1.2-2.6c0.5-0.3,1.1-0.7,1.7-0.7c0.7,0,1,0.4,1,0.8c0,1-1.8,1.6-2.8,2c0,0.1,0,0.2,0,0.2c0,0.5,0.2,1.1,0.8,1.1
		c0.4,0,1-0.2,1.6-0.8L26.2,31.2z M24.7,28.1c-0.3,0.2-0.8,0.7-0.9,1.9c1.3-0.4,1.7-0.9,1.7-1.5c0-0.4-0.3-0.5-0.4-0.5
		C24.9,28,24.8,28.1,24.7,28.1 M27.2,28.6c0.6-0.6,1.4-1.1,1.8-1.1c0.3,0,0.3,0.4,0.2,1L29,29.3l0,0c0.7-0.9,1.4-1.4,1.9-1.6
		c0.2-0.1,0.4-0.2,0.6-0.2s0.6,0.1,0.3,1.2l-0.1,0.5l0,0c0.7-0.9,1.5-1.4,1.9-1.6c0.2-0.1,0.4-0.2,0.6-0.2c0.2,0,0.6,0.1,0.4,1.3
		c-0.1,0.6-0.4,1.4-0.6,2.3c-0.1,0.3-0.1,0.4,0,0.4s0.5-0.2,0.8-0.4l0.1,0.3c-0.6,0.6-1.5,1-1.7,1c-0.3,0-0.4-0.2-0.3-0.9l0.6-2.5
		c0.1-0.4,0.2-0.7-0.1-0.7c-0.4,0-1.4,1-1.8,1.8c-0.1,0.3-0.4,1.4-0.4,2l-1.1,0.3c0.1-0.6,0.3-1.2,0.4-1.8l0.4-1.8
		c0.1-0.3,0.1-0.6-0.1-0.6c-0.4,0-1.4,1-1.8,1.8c-0.1,0.3-0.3,1.4-0.4,2l-1.2,0.3c0.2-0.6,0.3-1.2,0.4-1.7l0.4-1.7
		c0.1-0.4,0.1-0.5,0-0.5s-0.5,0.2-0.8,0.5L27.2,28.6z M36.1,25.2c0.9-0.2,1.8-0.4,1.9-0.4c0.1,0,0.2,0.2,0.1,0.5L37.3,29l0,0
		c0.9-1,1.8-1.4,2.3-1.4c0.4,0,0.7,0.4,0.7,1c0,1.3-0.7,2.7-1.6,3.3c-0.6,0.4-1.2,0.6-1.7,0.6c-0.6,0-1-0.2-1.2-0.6
		c-0.1-0.2,0-0.4,0.1-1.1l1-4.8c0.1-0.4,0.1-0.5-0.3-0.5h-0.5V25.2L36.1,25.2z M37.5,29.2c-0.4,0.5-0.4,0.6-0.6,1.5
		c-0.2,1,0.1,1.2,0.5,1.2c0.2,0,0.4,0,0.5-0.1c0.5-0.3,1.2-1.6,1.2-2.8c0-0.5-0.1-0.7-0.4-0.7C38.5,28.3,37.9,28.7,37.5,29.2
		 M44.6,31.2c-1,1.1-2,1.2-2.4,1.2c-0.5,0-1.2-0.3-1.2-1.6c0-1,0.5-2.1,1.2-2.6c0.5-0.3,1.1-0.7,1.7-0.7c0.7,0,1,0.4,1,0.8
		c0,1-1.8,1.6-2.8,2c0,0.1,0,0.2,0,0.2c0,0.5,0.2,1.1,0.8,1.1c0.4,0,1-0.2,1.6-0.8L44.6,31.2z M43.1,28.1c-0.3,0.2-0.8,0.7-0.9,1.9
		c1.3-0.4,1.7-0.9,1.7-1.5c0-0.4-0.3-0.5-0.4-0.5C43.3,28,43.2,28.1,43.1,28.1 M45.5,28.6c0.6-0.6,1.4-1.1,1.7-1.1s0.3,0.4,0.2,0.8
		l-0.2,0.8l0,0c0.5-0.9,1.1-1.6,1.4-1.6c0.2,0,0.5,0.1,0.6,0.3c0.1,0.1,0,0.4,0,0.5c-0.1,0.2-0.2,0.3-0.3,0.4s-0.2,0.1-0.3,0
		s-0.2-0.1-0.3-0.1s-0.3,0-0.5,0.4c-0.2,0.3-0.4,0.7-0.6,1.1c-0.2,1-0.4,1.7-0.4,2.1l0,0l-1.1,0.3c0.1-0.6,0.3-1.1,0.4-1.7l0.4-1.7
		c0.1-0.4,0.1-0.6,0-0.6S46,28.8,45.7,29L45.5,28.6z M55.9,29.1c0,1-0.4,2-1.1,2.6c-0.4,0.4-1.2,0.7-1.7,0.7c-1.1,0-1.5-0.9-1.5-1.6
		c0-1.4,0.8-2.4,1.5-2.8c0.5-0.3,1-0.4,1.3-0.4C55.3,27.5,55.9,28.2,55.9,29.1 M53.7,28.1c-0.3,0.1-1,1-1,2.6c0,0.8,0.3,1.3,0.8,1.3
		c0.1,0,0.2,0,0.2,0c0.4-0.1,1-1.3,1-2.7c0-0.8-0.3-1.2-0.7-1.2C53.9,28,53.8,28,53.7,28.1 M60,27.8l-0.2,0.3l-1.1,0.1
		c-0.2,0.9-0.2,1.6-0.4,2.3c-0.4,2.1-0.9,3.1-1.4,3.6s-1,0.7-1.2,0.7s-0.5-0.1-0.5-0.3s0.1-0.4,0.2-0.5c0.1-0.1,0.2-0.1,0.3-0.1
		c0.1,0.1,0.4,0.2,0.5,0.2s0.2,0,0.3-0.1c0.2-0.2,0.4-0.9,0.6-2.7c0.2-1.3,0.3-2.1,0.4-3.1h-0.8v-0.1l0.3-0.3h0.6
		c0.2-0.9,0.4-1.6,0.9-2.2c0.4-0.5,1.1-0.9,1.8-0.9c0.4,0,0.7,0.2,0.7,0.5c0,0.2-0.2,0.4-0.3,0.5s-0.3,0.1-0.4,0
		c-0.2-0.2-0.5-0.4-0.8-0.4s-0.5,0.4-0.8,2.5L60,27.8L60,27.8z M65.4,26.4L65,27.8h1.3L66,28.2h-1.1L64.4,31c-0.1,0.4,0,0.6,0.1,0.6
		c0.2,0,0.7-0.4,1-0.7l0,0l0.2,0.2c-0.3,0.4-1.4,1.3-1.9,1.3c-0.3,0-0.6-0.4-0.4-1.4l0.6-2.8h-0.8L63,28.1l0.3-0.3H64l0.2-0.8
		l1.1-0.7L65.4,26.4z M66.3,32.4c0.1-0.5,0.2-1.1,0.3-1.6l1-4.9c0.1-0.4,0.1-0.5-0.3-0.5h-0.5v-0.2c0.9-0.2,1.8-0.4,1.9-0.4
		s0.2,0.2,0.1,0.5l-0.8,4l0,0c0.7-0.8,1.4-1.3,1.9-1.5c0.2-0.1,0.4-0.2,0.6-0.2s0.6,0.1,0.4,1.1c-0.2,0.8-0.4,1.7-0.6,2.6
		c-0.1,0.3-0.1,0.4,0,0.4s0.5-0.2,0.7-0.4l0.1,0.3c-0.6,0.6-1.5,1-1.7,1c-0.3,0-0.4-0.2-0.3-0.9l0.6-2.5c0.1-0.4,0.1-0.7-0.1-0.7
		c-0.4,0-1.4,1-1.8,1.7c-0.1,0.3-0.3,1.5-0.4,2.1L66.3,32.4z M75.6,31.2c-1,1.1-2,1.2-2.4,1.2c-0.5,0-1.2-0.3-1.2-1.6
		c0-1,0.5-2.1,1.2-2.6c0.4-0.3,1.1-0.7,1.7-0.7c0.7,0,1,0.4,1,0.8c0,1-1.8,1.6-2.8,2c0,0.1,0,0.2,0,0.2c0,0.5,0.2,1.1,0.8,1.1
		c0.4,0,1-0.2,1.6-0.8L75.6,31.2z M74.1,28.1c-0.3,0.2-0.8,0.7-0.9,1.9c1.3-0.4,1.7-0.9,1.7-1.5c0-0.4-0.3-0.5-0.4-0.5
		C74.3,28,74.2,28.1,74.1,28.1 M82.7,25.4c1.1,0,2.3,0.3,2.3,1.7c0,1-0.8,1.6-1.8,1.9c0.1,0.3,0.4,1,0.6,1.4c0.3,0.6,0.5,1,0.7,1.2
		c0.2,0.3,0.4,0.4,0.7,0.5l-0.1,0.2h-0.3c-1.2,0-1.4-0.4-1.8-1c-0.3-0.6-0.6-1.2-0.8-1.7c-0.1-0.3-0.2-0.4-0.5-0.4h-0.4L81,30.6
		c-0.2,1.2-0.2,1.2,0.7,1.3v0.3h-2.9l0.1-0.3c0.8-0.1,0.9-0.1,1.1-1.3l0.7-3.7c0.2-1.2,0.2-1.2-0.7-1.3v-0.3L82.7,25.4L82.7,25.4z
		 M81.4,28.9h0.4c0.4,0,0.7-0.1,1.1-0.3c0.6-0.4,0.9-1,0.9-1.6c0-0.8-0.5-1.2-1.2-1.2c-0.3,0-0.4,0-0.5,0s-0.1,0.1-0.2,0.3
		L81.4,28.9z M90.2,29.1c0,1-0.4,2-1.1,2.6c-0.5,0.4-1.2,0.7-1.7,0.7c-1.1,0-1.5-0.9-1.5-1.6c0-1.4,0.8-2.4,1.5-2.8
		c0.5-0.3,1-0.4,1.3-0.4C89.7,27.5,90.2,28.2,90.2,29.1 M88.1,28.1c-0.3,0.1-1,1-1,2.6c0,0.8,0.3,1.3,0.8,1.3c0.1,0,0.2,0,0.2,0
		c0.4-0.1,1-1.3,1-2.7c0-0.8-0.3-1.2-0.7-1.2C88.3,28,88.2,28,88.1,28.1 M94.4,31.3c-0.7,0.7-1.6,1.1-2.2,1.1
		c-0.8,0-1.2-0.6-1.2-1.5c0-0.8,0.4-1.9,1.1-2.6c0.4-0.4,1.2-0.8,1.8-0.8c0.5,0,0.9,0.3,0.9,0.6c0,0.2-0.1,0.3-0.3,0.5
		c-0.2,0.2-0.4,0.1-0.5,0c-0.3-0.4-0.5-0.5-0.7-0.5s-0.5,0.2-0.7,0.6c-0.3,0.5-0.5,1.3-0.5,2s0.2,1.1,0.7,1.1c0.6,0,1.1-0.4,1.4-0.6
		L94.4,31.3z M95.1,32.4c0.1-0.5,0.2-1.1,0.3-1.6l1-4.9c0.1-0.4,0.1-0.5-0.3-0.5h-0.5v-0.2c0.9-0.2,1.8-0.4,1.9-0.4s0.2,0.2,0.1,0.5
		l-0.8,4l0,0c0.7-0.8,1.4-1.3,1.9-1.5c0.2-0.1,0.4-0.2,0.6-0.2s0.6,0.1,0.4,1.1c-0.2,0.8-0.4,1.7-0.6,2.6c-0.1,0.3-0.1,0.4,0,0.4
		s0.5-0.2,0.7-0.4l0.1,0.3c-0.6,0.6-1.5,1-1.7,1c-0.3,0-0.4-0.2-0.3-0.9l0.6-2.5c0.1-0.4,0.1-0.7-0.1-0.7c-0.4,0-1.4,1-1.8,1.7
		c-0.1,0.3-0.3,1.5-0.4,2.1L95.1,32.4z M104.4,31.2c-1,1.1-2,1.2-2.4,1.2c-0.5,0-1.2-0.3-1.2-1.6c0-1,0.5-2.1,1.2-2.6
		c0.5-0.3,1.1-0.7,1.7-0.7c0.7,0,1,0.4,1,0.8c0,1-1.8,1.6-2.8,2c0,0.1,0,0.2,0,0.2c0,0.5,0.2,1.1,0.8,1.1c0.4,0,1-0.2,1.6-0.8
		L104.4,31.2z M102.9,28.1c-0.3,0.2-0.8,0.7-0.9,1.9c1.3-0.4,1.7-0.9,1.7-1.5c0-0.4-0.3-0.5-0.4-0.5C103.1,28,103,28.1,102.9,28.1
		 M114.2,27.2c0-1.3-0.8-1.6-1.7-1.6c-1.9,0-3.1,1.7-3.1,3.7c0,1.6,0.7,2.6,2.2,2.6c0.4,0,0.9-0.1,1-0.6l0.2-1.1
		c0.1-0.7,0.1-0.8-1-0.8v-0.3h2.9v0.3c-0.5,0-0.6,0.1-0.8,0.8l-0.2,1c0,0.3-0.1,0.6-0.1,0.8c-0.7,0.2-1.4,0.4-2.3,0.4
		c-1.9,0-3.2-1.1-3.2-3c0-2.5,2.1-4.2,4.6-4.2c0.8,0,1.6,0.2,1.9,0.3c0,0.4-0.1,0.9-0.1,1.7H114.2z M115.1,28.6
		c0.6-0.6,1.4-1.1,1.7-1.1c0.3,0,0.3,0.4,0.2,0.8l-0.2,0.8l0,0c0.5-0.9,1.1-1.6,1.4-1.6c0.2,0,0.5,0.1,0.6,0.3c0.1,0.1,0,0.4,0,0.5
		c-0.1,0.2-0.2,0.3-0.3,0.4c-0.1,0.1-0.2,0.1-0.3,0c-0.1-0.1-0.2-0.1-0.3-0.1c-0.1,0-0.3,0-0.5,0.4c-0.2,0.3-0.4,0.7-0.6,1.1
		c-0.2,1-0.4,1.7-0.4,2.1l0,0l-1.1,0.3c0.1-0.6,0.2-1.1,0.4-1.7L116,29c0.1-0.4,0.1-0.6,0-0.6s-0.5,0.3-0.8,0.5L115.1,28.6z
		 M123.4,29.1c0,1-0.4,2-1.1,2.6c-0.5,0.4-1.2,0.7-1.7,0.7c-1.1,0-1.5-0.9-1.5-1.6c0-1.4,0.8-2.4,1.5-2.8c0.5-0.3,1-0.4,1.3-0.4
		C122.8,27.5,123.4,28.2,123.4,29.1 M121.2,28.1c-0.3,0.1-1,1-1,2.6c0,0.8,0.3,1.3,0.8,1.3c0.1,0,0.2,0,0.2,0c0.4-0.1,1-1.3,1-2.7
		c0-0.8-0.3-1.2-0.7-1.2C121.4,28,121.3,28,121.2,28.1 M124.2,28.6c0.6-0.6,1.4-1.1,1.8-1.1c0.2,0,0.4,0.3,0.2,0.8l-0.6,2.4
		c-0.1,0.5-0.1,0.8,0.1,0.8s0.6-0.3,0.9-0.8c0.4-0.4,0.8-1,0.9-1.3c0.1-0.2,0.3-1.1,0.4-1.7l1-0.3h0.1c-0.3,1.2-0.5,2.4-0.8,3.7
		c0,0.3-0.1,0.4,0,0.4s0.5-0.2,0.7-0.4l0.2,0.3c-0.6,0.6-1.5,1-1.7,1c-0.3,0-0.4-0.3-0.3-0.9l0.2-1.1l0,0c-0.5,0.8-1.2,1.4-1.7,1.7
		c-0.3,0.2-0.5,0.3-0.8,0.3c-0.2,0-0.7-0.2-0.4-1.4l0.5-2.1c0.1-0.4,0.1-0.5,0-0.5s-0.5,0.2-0.8,0.5L124.2,28.6z M132.1,27.7
		c0.3-0.1,0.7-0.2,0.9-0.2c1.2,0,1.7,0.6,1.7,1.4c0,0.7-0.3,1.5-1,2.2c-0.5,0.6-1.3,1-2,1.2c-0.2,0-0.4,0-0.6-0.1l-0.3,1.4
		c-0.1,0.5-0.1,0.6,0.3,0.7h0.5v0.3l-2.8,0.1v-0.3c0.7-0.1,0.8-0.2,0.9-0.7l1.1-5.5c-0.3,0.1-0.6,0.2-0.9,0.3l-0.1-0.3
		c0.4-0.2,0.7-0.3,1-0.4l0.1-0.4c0.3-0.2,0.7-0.5,1-0.7l0.1,0.1L132.1,27.7z M131.3,31.6c0.1,0.1,0.3,0.3,0.6,0.3
		c0.7,0,1.6-1.3,1.6-2.7c0-0.9-0.5-1.1-1-1.1c-0.2,0-0.4,0-0.6,0.1L131.3,31.6z"/>
</g>
</svg>
