<svg xmlns="http://www.w3.org/2000/svg" viewBox="0 0 272 84"><style type="text/css">  
	.st0{fill:#4B9CD3;}
	.st1{fill:none;stroke:#4B9CD3;stroke-width:0.8;stroke-miterlimit:10;}
</style><path class="st0" d="M30 26.2c0.1 0.1 0.2 0.1 0.2 0.1 8.5-0.3 13.3 2.9 13.7 4.2l3.4-0.1 1.1-2.3c0.1-0.2 0-0.5 0-0.5 -1-1.1-9.5-3.6-19.8-3.6 -11 0-17.9 2.2-19.4 3.2 0 0-0.4 0.2-0.4 0.5 0 0.1 0.2 0.6 0.2 0.6l0.3 0.6c0.1 0.2 0.2 0.2 0.4 0 0 0 0.2-0.1 0.2-0.2s-0.1-0.4-0.1-0.4c-0.2-0.4 0.1-0.5 0.1-0.5l0.6-0.3c0.3-0.1 0.3 0.1 0.4 0.3 0 0 0.1 0.3 0.2 0.4 0.2 0.1 0.7-0.2 2.1-0.6 0.1 0 0.2 0 0.4-0.1 0.1-0.1 0-0.6 0-0.6 -0.1-0.2-0.2-0.5 0.4-0.6l0.9-0.2c0.4-0.1 0.5 0.1 0.5 0.4 0 0 0 0.4 0.1 0.5 0.1 0.2 0.3-0.1 3.2-0.4 0 0 0.4 0 0.5-0.2s0-0.5 0-0.5c0-0.3-0.2-0.6 0.5-0.6l1.2-0.1c0.9-0.2 0.8 0.2 0.8 0.5 0 0 0 0.4 0.1 0.4 0.1 0.1 0.4 0.1 0.4 0.1 1.6-0.2 2.5-0.2 4.2-0.2 0 0 0.2 0 0.3-0.1s0.1-0.2 0.1-0.2c0-0.2 0-0.5 0.1-0.6s0.4-0.1 0.6-0.1h1.4c0.2 0 0.7-0.1 0.8 0.1 0.1 0.1 0.1 0.7 0.1 0.7S30 26.1 30 26.2z"/><path class="st0" d="M28.6 12.5c-8.3 0-13.3 2.7-16.6 5.8l-0.1 0.1c-0.1 0.2-0.1 0.4 0.3 0.3 7.1-3 14.8-1.1 17.3 1.7 0.1 0.1 0 0.2-0.1 0.2 -2.5 0-4.6-0.1-9.2 0.5 -2.5 0.4-4.7 0.7-6.6 1.2 -3.1 0.8-5.3 1.8-6.5 2.6 -0.4 0.2-0.5 0.4-0.6 0.6 -0.1 0.4-0.1 0.4-0.2 0.7 -0.2 0.5-0.2 0.8-0.3 1 -0.1 0.3 0.3 0.2 0.5 0 0.4-0.4 1.4-1.3 2.9-2s4-1.5 6.8-2c3.6-0.7 8.1-1.1 12.1-1.1 4.7 0 8.9 0.5 12.4 1.2 3.6 0.7 6.4 1.7 8.2 2.6 0.9 0.4 1.3 0.8 1.9 1.3 0.5 0.5 0.5 0.1 0.5-0.1 0 0-0.1-0.6-0.8-2C48.1 20.8 41.9 12.5 28.6 12.5"/><path class="st0" d="M29.1 73.7c-16.4 0-24.6-3.8-24.6-6l0 0v-2.1c0 0 0-0.1 0.1-0.1h0.1c7.1 5.4 23.9 6.1 31.2 3.7 0.2-0.1 0.3-0.2 0.3-0.2l-0.1-0.1c-0.2-0.1-0.3-0.1-0.5 0 -0.1 0-0.2 0-0.3 0 -11.5 1.2-23.6-1.1-27.7-4l-0.1-0.1v-2.5c0-0.1 0-0.1 0.1-0.1s0.1 0 0.1 0c0.5 0.5 2.6 1.5 6.6 2.3 3 0.6 7.9 1.4 14.4 1.4 9.8 0 18-1.8 20.2-3 0.5-0.3 0.8-0.5 0.8-0.6s0.1-0.1 0.1-0.1c0.1 0 0.1 0.1 0.1 0.1l0.1 1.5c2.5 0 3.4 0.1 3.5 0.7 0 0 0 0.1 0 0.2l0 0 0.1 2.9C53.7 69.8 45 73.7 29.1 73.7z"/><path class="st0" d="M38.8 28.5h-4.5c-0.2 0-0.3 0.1-0.3 0.3v0.5c0 0.2 0.1 0.3 0.3 0.3h1.4c0.1 0 0.2 0.1 0.2 0.1 0.1 0.1-0.2 0.3-0.3 0.3l-0.7 0.4c-0.1 0.1-0.2 0.2-0.2 0.4v32.3c0.1 0.6 1 0.6 2 0.6 0.8 0 1.8 0 1.9-0.6 0 0 0-30.8 0-33.4 0-0.1 0.1-0.2 0.1-0.2h0.2c0.2 0 0.3-0.1 0.3-0.3v-0.5C39.1 28.6 39 28.5 38.8 28.5z"/><path class="st0" d="M28.8 62c-1.4 0-2.8 0-2.9-0.1 -0.2-0.1-0.2-0.9-0.1-1.5 0 0 0-0.1 0.1-0.1l0.5-0.2v-6c0 0 0-0.1 0-0.3 0.1-0.2 0.2-0.3 0.3-0.3 0.4-0.3 1.3-0.9 1.8-1.2 0.1 0 0.1-0.1 0.1-0.1v-0.1c0-0.1-0.2-0.1-0.3-0.1s-0.1 0-0.1 0c-0.1 0-0.2 0-1.4 0 0 0-0.2 0-0.4-0.1 -0.1 0-0.2-0.1-0.2-0.1l0 0 -0.4-0.9h-0.3 -0.1v-0.1 -0.2c0-0.1 0.1-0.1 0.1-0.1h6.3c0.1 0 0.1 0.1 0.1 0.1v0.2 0.1h-0.1 -0.2L31 52.1v8l0.5 0.2 0.1 0.1c0.1 0.9 0.1 1.4-0.1 1.5C31.4 61.9 30.1 62 28.8 62z"/><path class="st0" d="M47.6 30.3h-4.5c-0.2 0-0.3 0.1-0.3 0.3v0.5c0 0.2 0.1 0.3 0.3 0.3h1.4c0.1 0 0.2 0.1 0.2 0.1 0.1 0.1-0.2 0.3-0.3 0.3l-0.7 0.4c-0.1 0.1-0.2 0.2-0.2 0.4v29.2c0.1 0.6 1 0.6 2 0.6 0.8 0 1.8 0 1.9-0.6 0 0 0-27.6 0-30.3 0-0.1 0.1-0.2 0.1-0.2h0.2c0.2 0 0.3-0.1 0.3-0.3v-0.5C47.9 30.4 47.8 30.3 47.6 30.3z"/><path class="st0" d="M22.9 28.5h-4.5c-0.2 0-0.3 0.1-0.3 0.3v0.5c0 0.2 0.1 0.3 0.3 0.3h1.4c0.1 0 0.2 0.1 0.2 0.1 0.1 0.1-0.2 0.3-0.3 0.3L19 30.4c-0.1 0.1-0.2 0.2-0.2 0.4v32.3c0.1 0.6 1 0.6 2 0.6 0.8 0 1.8 0 1.9-0.6 0 0 0-30.8 0-33.4 0-0.1 0.1-0.2 0.1-0.2H23c0.2 0 0.3-0.1 0.3-0.3v-0.5C23.2 28.6 23.1 28.5 22.9 28.5z"/><path class="st0" d="M14.1 30.4H9.6c-0.2 0-0.3 0.1-0.3 0.3v0.5c0 0.2 0.1 0.3 0.3 0.3H11c0.1 0 0.2 0.1 0.2 0.1 0.1 0.1-0.2 0.3-0.3 0.3l-0.7 0.4c-0.1 0.1-0.2 0.2-0.2 0.4v29.2c0.1 0.6 1 0.6 2 0.6 0.8 0 1.8-0.1 1.9-0.6 0 0 0-27.6 0-30.3 0-0.1 0.1-0.2 0.1-0.2h0.2c0.2 0 0.3-0.1 0.3-0.3v-0.5C14.4 30.5 14.3 30.4 14.1 30.4z"/><line class="st1" x1="72.5" y1="5.8" x2="72.5" y2="78.2"/><path class="st0" d="M102.9 21.8h-0.6c-0.2-1.3-0.4-1.6-1.3-1.6h-1.5v5.4c0 1.1 0.2 1.3 1.4 1.3v0.6h-5.1v-0.6c1.3 0 1.4-0.2 1.4-1.3v-5.4h-1.5c-0.6 0-1 0.2-1.2 1.6h-0.6l0.2-2.6h0.6c0.1 0.1 0.1 0.1 0.2 0.2 0.1 0 0.2 0 0.4 0h5.9c0.6 0 0.7 0 0.8-0.2h0.6L102.9 21.8z"/><path class="st0" d="M113.2 22.9v-1.6c0-1-0.2-1.3-1.1-1.3v-0.6h4.4V20c-1 0-1.1 0.3-1.1 1.1v4.5c0 0.9 0.1 1.3 1.1 1.3v0.6h-4.4v-0.6c0.8 0 1.1-0.2 1.1-1.3v-1.9h-3.9v1.9c0 0.8 0.1 1.2 1.1 1.2v0.6h-4.5v-0.6c0.9 0 1.1-0.2 1.1-1.3v-4.4c0-1-0.3-1.3-1.1-1.3v-0.6h4.5v0.6c-0.9 0.1-1.1 0.2-1.1 1.2v1.7h3.9V22.9z"/><path class="st0" d="M127.4 19.4l0.1 1.9h-0.6c-0.1-0.9-0.3-1.1-1-1.1h-2.6V23h1.7c0.9 0 1.2-0.2 1.2-1h0.6v2.7h-0.6c0-0.7-0.2-0.9-1.2-0.9h-1.7v2.1c0 0.7 0.1 0.7 0.8 0.7h1.5c1.1 0 1.4-0.5 1.6-1.4h0.6l-0.2 2.2h-7.9v-0.6c1.2 0 1.4-0.3 1.4-1.2v-4.5c0-1.1-0.4-1.2-1.3-1.2v-0.6h7.6V19.4z"/><path class="st0" d="M146.1 19.4V20c-1.1 0-1.3 0.2-1.3 1.2v2.9c0 2.6-1.6 3.6-3.8 3.6 -2.4 0-3.9-1.1-3.9-3v-3.4c0-0.9-0.2-1.3-1.1-1.3v-0.6h4.4V20c-0.9 0-1.2 0.3-1.2 1.1v3.5c0 1.2 0.7 2 2.3 2 1.7 0 2.4-0.9 2.4-2.6v-2.7c0-1-0.2-1.3-1.3-1.3v-0.6L146.1 19.4 146.1 19.4z"/><path class="st0" d="M159.2 19.4V20c-0.9 0-1.2 0.3-1.2 1.2v6.4h-1l-5.9-6.2v4.3c0 0.9 0.1 1.2 1.2 1.2v0.6H149v-0.6c0.9 0 1.2-0.2 1.2-1.3v-5.2c-0.2-0.2-0.5-0.3-1.1-0.3v-0.6h3.1l4.9 5.3v-3.5c0-0.8-0.1-1.2-1.2-1.2v-0.6L159.2 19.4 159.2 19.4z"/><path class="st0" d="M162.3 27.5v-0.6c0.9 0 1.1-0.3 1.1-1.2v-4.5c0-0.9-0.2-1.3-1.1-1.3v-0.6h4.5v0.6c-1 0-1.2 0.3-1.2 1.3v4.4c0 0.8 0.1 1.2 1.2 1.2v0.6h-4.5V27.5z"/><path class="st0" d="M179 20c-0.9 0-1.2 0.2-1.8 1.5l-2.8 6.2h-1l-2.7-6.1c-0.7-1.5-0.8-1.6-1.7-1.6v-0.6h4.9V20c-1 0-1.3 0.2-1.3 0.5 0 0.2 0.1 0.4 0.2 0.8l1.7 3.8 1.5-3.3c0.4-0.8 0.5-1.1 0.5-1.3 0-0.3-0.3-0.5-1.1-0.5v-0.6h3.6L179 20 179 20z"/><path class="st0" d="M188.2 19.4l0.1 1.9h-0.6c-0.1-0.9-0.3-1.1-1-1.1h-2.6V23h1.7c0.9 0 1.2-0.2 1.2-1h0.6v2.7H187c0-0.7-0.2-0.9-1.2-0.9h-1.7v2.1c0 0.7 0.1 0.7 0.8 0.7h1.5c1.1 0 1.4-0.5 1.6-1.4h0.6l-0.2 2.2h-7.9v-0.6c1.2 0 1.4-0.3 1.4-1.2v-4.5c0-1.1-0.4-1.2-1.3-1.2v-0.6h7.6V19.4z"/><path class="st0" d="M202.7 27.6h-1.6c-1.2 0-1.9-0.2-2.5-0.8 -0.8-0.8-1.6-2.2-2.2-2.8h-0.7v1.7c0 1 0.4 1.1 1.4 1.1v0.6h-4.9v-0.6c1.1 0 1.4-0.2 1.4-1.1v-4.5c0-1-0.2-1.2-1.4-1.2v-0.6c0.8-0.1 1.3-0.1 2.4-0.1 0.8 0 1.6-0.1 2.1-0.1 2.1 0 4 0.4 4 2.4 0 1-0.6 1.7-1.9 2.1 0.8 0.7 1.3 1.8 2.1 2.6 0.6 0.6 1.1 0.7 1.8 0.7L202.7 27.6 202.7 27.6zM195.7 23.4c1.9 0 2.6-0.6 2.6-1.9 0-1-0.7-1.7-1.9-1.7h-0.6v3.6H195.7z"/><path class="st0" d="M205 25.1c0.4 1.2 1.2 2 2.3 2 0.8 0 1.3-0.5 1.3-1.2 0-1.7-4.1-1.9-4.1-4.4 0-0.9 0.6-2.3 2.8-2.3 1 0 1.6 0.3 2 0.3 0.1 0 0.2 0 0.3-0.2h0.4l0.2 2.3h-0.6c-0.4-1.1-1.3-1.7-2.2-1.7 -0.7 0-1.1 0.3-1.1 0.8 0 1.4 4.3 1.7 4.3 4.5 0 1.5-1.2 2.5-3 2.5 -0.9 0-1.9-0.3-2.1-0.3s-0.3 0.1-0.3 0.2h-0.4l-0.4-2.6h0.6V25.1z"/><path class="st0" d="M213.9 27.5v-0.6c0.9 0 1.1-0.3 1.1-1.2v-4.5c0-0.9-0.2-1.3-1.1-1.3v-0.6h4.5v0.6c-1 0-1.2 0.3-1.2 1.3v4.4c0 0.8 0.1 1.2 1.2 1.2v0.6h-4.5V27.5z"/><path class="st0" d="M230 21.8h-0.6c-0.2-1.3-0.4-1.6-1.3-1.6h-1.5v5.4c0 1.1 0.2 1.3 1.4 1.3v0.6h-5v-0.6c1.3 0 1.4-0.2 1.4-1.3v-5.4h-1.5c-0.6 0-1 0.2-1.2 1.6h-0.6l0.2-2.6h0.6c0.1 0.1 0.1 0.1 0.2 0.2 0.1 0 0.2 0 0.4 0h5.9c0.6 0 0.7 0 0.8-0.2h0.6L230 21.8z"/><path class="st0" d="M241.8 20c-0.9 0-1.1 0.2-1.8 1.3l-1.9 2.9v1.4c0 0.9 0.1 1.2 1.3 1.2v0.6h-4.8v-0.6c1.1 0 1.3-0.3 1.3-1.2v-1.3l-2.4-3.2c-0.6-0.8-0.9-1-1.6-1v-0.6h4.7v0.6c-0.6 0-0.9 0.1-0.9 0.3 0 0.1 0.1 0.3 0.2 0.4l1.8 2.5 1.3-2.1c0.2-0.4 0.3-0.6 0.3-0.8 0-0.3-0.2-0.4-0.9-0.4v-0.6h3.3V20H241.8z"/><path class="st0" d="M98.2 40.5c1 0 1.6 0.9 1.6 2.2 0 2.6-2.4 4.2-4 4.2 -1 0-1.6-0.9-1.6-2.1C94.2 42.6 96.2 40.5 98.2 40.5zM96.7 46.3c0.6 0 1.4-1.5 1.4-3.3 0-1-0.4-1.8-0.8-1.8 -0.6 0-1.4 1.5-1.4 3.3C95.9 45.5 96.3 46.3 96.7 46.3z"/><path class="st0" d="M103.4 46.2c-0.2 1.1-0.5 2.1-1.5 3 -0.6 0.6-1.3 1-2.3 1 -0.9 0-1.5-0.4-1.5-0.9 0-0.4 0.4-0.7 0.8-0.7 0.9 0 0.9 1.1 1.6 1.1 0.5 0 0.9-0.6 1-1.6l1.1-6.7h-1.1l0.1-0.4c0.4 0 0.9-0.1 1.2-0.3 0.3-2.1 1.5-3.9 3.6-3.9 0.9 0 1.4 0.3 1.4 0.8 0 0.4-0.4 0.8-0.8 0.8 -0.8 0-1.1-1-1.6-1 -0.4 0-0.5 0.5-0.7 1.8l-0.2 1.5h1.1l-0.1 0.7h-1.1L103.4 46.2z"/><path class="st0" d="M123.5 38.6v0.6c-0.9 0-1.2 0.3-1.2 1.2v6.4h-1l-5.9-6.2v4.3c0 0.9 0.1 1.2 1.2 1.2v0.6h-3.3v-0.6c0.9 0 1.2-0.2 1.2-1.3v-5.2c-0.2-0.2-0.5-0.3-1.1-0.3v-0.6h3.1l4.9 5.3v-3.5c0-0.8-0.1-1.2-1.2-1.2v-0.6L123.5 38.6 123.5 38.6z"/><path class="st0" d="M130.6 46.9c-3.7 0-4.8-2.4-4.8-4.2 0-2.2 1.6-4.3 5.1-4.3 3.6 0 4.7 2.4 4.7 4.2C135.6 44.3 134.5 46.9 130.6 46.9zM130.5 39.1c-1.2 0-2.4 0.8-2.4 3.1 0 2.5 1.2 4.2 2.9 4.2 1.3 0 2.3-1 2.3-3.1C133.3 40.8 132.2 39.1 130.5 39.1z"/><path class="st0" d="M148.5 46.9h-1.6c-1.2 0-1.9-0.2-2.5-0.8 -0.8-0.8-1.6-2.2-2.2-2.8h-0.7V45c0 1 0.4 1.1 1.4 1.1v0.6H138v-0.6c1.1 0 1.4-0.2 1.4-1.1v-4.5c0-1-0.2-1.2-1.4-1.2v-0.6c0.8 0 1.3-0.1 2.4-0.1 0.8 0 1.6-0.1 2.1-0.1 2.1 0 4 0.4 4 2.4 0 1-0.6 1.7-1.9 2.1 0.8 0.7 1.3 1.8 2.1 2.6 0.6 0.6 1.1 0.7 1.8 0.7V46.9zM141.5 42.7c1.9 0 2.6-0.6 2.6-1.9 0-1-0.7-1.7-1.9-1.7h-0.6v3.6H141.5z"/><path class="st0" d="M158.8 41h-0.6c-0.2-1.3-0.4-1.6-1.3-1.6h-1.5v5.4c0 1.1 0.2 1.3 1.4 1.3v0.6h-5v-0.6c1.3 0 1.4-0.2 1.4-1.3v-5.4h-1.5c-0.6 0-1 0.2-1.2 1.6h-0.6l0.2-2.6h0.6c0.1 0.1 0.1 0.1 0.2 0.2 0.1 0 0.2 0 0.4 0h5.9c0.6 0 0.7 0 0.8-0.2h0.6L158.8 41z"/><path class="st0" d="M168.9 42.2v-1.6c0-1-0.2-1.3-1.1-1.3v-0.6h4.4v0.6c-0.9 0-1.1 0.3-1.1 1.1v4.5c0 0.9 0.1 1.3 1.1 1.3v0.6h-4.4v-0.6c0.8 0 1.1-0.2 1.1-1.3V43H165v1.9c0 0.8 0.1 1.2 1.1 1.2v0.6h-4.5v-0.6c0.9 0 1.1-0.2 1.1-1.3v-4.4c0-1-0.3-1.2-1.1-1.2v-0.6h4.5v0.6c-0.9 0.1-1.1 0.2-1.1 1.2v1.7L168.9 42.2 168.9 42.2z"/><path class="st0" d="M189.5 44.2c-0.1 0.7-0.4 1.7-0.8 2.6v0.1c-0.1 0-0.2-0.1-0.4-0.1 -0.1 0-0.3 0-0.4 0 -0.4 0-0.7 0-1.1 0.1 -0.4 0-0.8 0.1-1.3 0.1 -1.7 0-2.9-0.6-3.7-1.4 -0.7-0.8-1.1-1.8-1.1-2.7 0-1.3 0.5-2.4 1.4-3.2 0.9-0.8 2.2-1.2 3.7-1.2 1.4 0 2.2 0.4 2.5 0.4 0.1 0 0.2-0.1 0.2-0.2h0.5l0.1 2.7h-0.6c-0.1-0.7-0.5-1.2-0.9-1.6s-1-0.6-1.7-0.6c-1.7 0-2.9 1.4-2.9 3.4 0 2.1 1.2 3.6 3.1 3.6 1.2 0 2.2-0.7 2.8-2L189.5 44.2 189.5 44.2z"/><path class="st0" d="M201 46.7h-4.7v-0.6c0.9 0 1.2-0.1 1.2-0.4 0-0.2-0.1-0.5-0.3-1l-0.3-0.8H194l-0.2 0.7c-0.2 0.5-0.3 0.9-0.3 1 0 0.4 0.4 0.5 1.1 0.5v0.6h-3.3v-0.6c1 0 1.1-0.2 1.5-1.6l2-5.8 -0.1-0.3h2.3l2.4 6.2c0.5 1.2 0.8 1.5 1.5 1.5L201 46.7 201 46.7zM195.4 40.1l-1.1 3.1h2.3L195.4 40.1z"/><path class="st0" d="M213.9 46.9h-1.6c-1.2 0-1.9-0.2-2.5-0.8 -0.8-0.8-1.6-2.2-2.2-2.8H207V45c0 1 0.4 1.1 1.4 1.1v0.6h-4.9v-0.6c1.1 0 1.4-0.2 1.4-1.1v-4.5c0-1-0.2-1.2-1.4-1.2v-0.6c0.8 0 1.3-0.1 2.4-0.1 0.8 0 1.6-0.1 2.1-0.1 2.1 0 4 0.4 4 2.4 0 1-0.6 1.7-1.9 2.1 0.8 0.7 1.3 1.8 2.1 2.6 0.6 0.6 1.1 0.7 1.8 0.7v0.6H213.9zM207 42.7c1.9 0 2.6-0.6 2.6-1.9 0-1-0.7-1.7-1.9-1.7H207V42.7z"/><path class="st0" d="M220.1 46.9c-3.7 0-4.8-2.4-4.8-4.2 0-2.2 1.6-4.3 5.1-4.3 3.6 0 4.7 2.4 4.7 4.2C225.1 44.3 224 46.9 220.1 46.9zM220 39.1c-1.2 0-2.4 0.8-2.4 3.1 0 2.5 1.2 4.2 2.9 4.2 1.3 0 2.3-1 2.3-3.1C222.8 40.8 221.6 39.1 220 39.1z"/><path class="st0" d="M232.5 38.6v0.6c-1.1 0-1.3 0.2-1.3 1.2v4.5c0 0.8 0.1 0.9 1 0.9h1c0.8 0 1.1 0 2.2-1.5h0.6l-1 2.4h-7.2v-0.6c1.1 0 1.3-0.3 1.3-1.3v-4.4c0-0.9-0.1-1.2-1.3-1.2v-0.6H232.5z"/><path class="st0" d="M238.5 46.7v-0.6c0.9 0 1.1-0.3 1.1-1.2v-4.5c0-0.9-0.2-1.2-1.1-1.2v-0.6h4.5v0.6c-1 0-1.2 0.3-1.2 1.2v4.4c0 0.8 0.1 1.2 1.2 1.2v0.6h-4.5V46.7z"/><path class="st0" d="M256.5 38.6v0.6c-0.9 0-1.2 0.3-1.2 1.2v6.4h-1l-5.9-6.2v4.3c0 0.9 0.1 1.2 1.2 1.2v0.6h-3.3v-0.6c0.9 0 1.2-0.2 1.2-1.3v-5.2c-0.2-0.2-0.5-0.3-1.1-0.3v-0.6h3.1l4.9 5.3v-3.5c0-0.8-0.1-1.2-1.2-1.2v-0.6L256.5 38.6 256.5 38.6z"/><path class="st0" d="M267.5 46.7h-4.7v-0.6c0.9 0 1.2-0.1 1.2-0.4 0-0.2-0.1-0.5-0.3-1l-0.3-0.8h-2.9l-0.2 0.7c-0.2 0.5-0.3 0.9-0.3 1 0 0.4 0.4 0.5 1.1 0.5v0.6h-3.3v-0.6c1 0 1.1-0.2 1.5-1.6l2-5.8 -0.1-0.3h2.3l2.4 6.2c0.5 1.2 0.8 1.5 1.5 1.5L267.5 46.7 267.5 46.7zM261.9 40.1l-1.1 3.1h2.3L261.9 40.1z"/><path class="st0" d="M98.9 64.5c-0.1 0.3-0.1 0.6 0.1 0.6s0.7-0.5 1-0.9v0.5c-0.8 0.8-1.6 1.4-2.1 1.4 -0.4 0-0.6-0.3-0.6-0.9 0-0.3 0-0.4 0.1-0.9l0 0c-0.9 1-1.8 1.8-2.2 1.8 -0.3 0-1-0.4-1-1.4s0.3-2.2 1.6-3.5c1.2-1.2 2.3-1.5 4.2-1.5L98.9 64.5zM98.1 60.6c-0.8 0-1.2 0.2-1.7 0.7s-0.9 1.6-0.9 2.4c0 0.6 0.2 1 0.6 1 0.3 0 0.8-0.5 1.4-1.1L98.1 60.6z"/><path class="st0" d="M103.6 64.7c-0.1 0.3 0.1 0.5 0.3 0.5 0.2 0 0.7-0.4 1.1-0.9l0.3 0.3c-0.8 0.9-1.8 1.5-2.5 1.5 -0.6 0-0.9-0.4-0.8-1.3l0.9-4.3h-0.7l0.1-0.3c1-0.3 1.8-1.1 2.7-2.3h0.4c-0.3 0.6-0.5 1.2-0.7 2h1.2l-0.1 0.7h-1.2L103.6 64.7z"/><path class="st0" d="M122.2 63.4c-0.1 0.7-0.4 1.7-0.8 2.6v0.1c-0.1 0-0.2-0.1-0.4-0.1 -0.1 0-0.3 0-0.4 0 -0.4 0-0.7 0-1.1 0.1 -0.4 0-0.8 0.1-1.3 0.1 -1.7 0-2.9-0.6-3.7-1.4 -0.7-0.8-1.1-1.8-1.1-2.7 0-1.3 0.5-2.4 1.4-3.2 0.9-0.8 2.2-1.2 3.7-1.2 1.4 0 2.2 0.4 2.5 0.4 0.1 0 0.2-0.1 0.2-0.2h0.5l0.1 2.7h-0.6c-0.1-0.7-0.5-1.2-0.9-1.6 -0.5-0.4-1-0.6-1.7-0.6 -1.7 0-2.9 1.4-2.9 3.4 0 2.1 1.2 3.6 3.1 3.6 1.2 0 2.2-0.7 2.8-2L122.2 63.4 122.2 63.4z"/><path class="st0" d="M132.4 61.4v-1.6c0-1-0.2-1.3-1.1-1.3v-0.6h4.4v0.6c-0.9 0-1.1 0.3-1.1 1.1v4.5c0 0.9 0.1 1.3 1.1 1.3V66h-4.4v-0.6c0.8 0 1.1-0.2 1.1-1.3v-1.9h-3.9v1.9c0 0.8 0.1 1.2 1.1 1.2v0.6h-4.5v-0.6c0.9 0 1.1-0.2 1.1-1.3v-4.4c0-1-0.3-1.2-1.1-1.2v-0.6h4.5v0.6c-0.9 0.1-1.1 0.2-1.1 1.2v1.7L132.4 61.4 132.4 61.4z"/><path class="st0" d="M147.5 66h-4.7v-0.6c0.9 0 1.2-0.1 1.2-0.4 0-0.2-0.1-0.5-0.3-1l-0.3-0.8h-2.9l-0.2 0.7c-0.2 0.5-0.3 0.9-0.3 1 0 0.4 0.4 0.5 1.1 0.5V66h-3.3v-0.6c1 0 1.1-0.2 1.5-1.6l2-5.8 -0.1-0.3h2.3l2.4 6.2c0.5 1.2 0.8 1.5 1.5 1.5L147.5 66 147.5 66zM141.9 59.3l-1.1 3.1h2.3L141.9 59.3z"/><path class="st0" d="M150.9 60.1c0-1.4-0.1-1.5-1.2-1.6v-0.6c0.7 0 1.7-0.1 2.6-0.1s1.6-0.1 1.8-0.1c2.2 0 3.6 0.9 3.6 2.5 0 1.1-0.8 2.5-3.2 2.5 -0.4 0-1-0.1-1.4-0.1v1.7c0 0.8 0.2 1 1.5 1v0.6h-4.8v-0.6c0.9 0 1.2-0.3 1.2-1.3v-3.9H150.9zM153.1 61.9c0.2 0.1 0.4 0.1 0.6 0.1 1.1 0 1.7-0.7 1.7-1.9 0-1.1-0.6-1.8-1.6-1.8 -0.3 0-0.5 0-0.7 0.1V61.9z"/><path class="st0" d="M167.9 57.9l0.1 1.9h-0.6c-0.1-0.9-0.3-1.1-0.9-1.1h-2.6v2.8h1.7c0.9 0 1.2-0.2 1.2-1h0.6v2.7h-0.6c0-0.7-0.2-0.9-1.2-0.9h-1.7v2.1c0 0.7 0.1 0.7 0.8 0.7h1.5c1.1 0 1.4-0.5 1.6-1.4h0.6l-0.2 2.2h-7.9v-0.6c1.2 0 1.4-0.3 1.4-1.2v-4.5c0-1.1-0.4-1.2-1.3-1.2v-0.6h7.5V57.9z"/><path class="st0" d="M176.4 57.9v0.6c-1.1 0-1.3 0.2-1.3 1.2v4.5c0 0.8 0.1 0.9 1 0.9h1c0.8 0 1.1 0 2.2-1.5h0.6l-1 2.4h-7.2v-0.6c1.1 0 1.3-0.3 1.3-1.3v-4.4c0-0.9-0.1-1.2-1.3-1.2v-0.6H176.4z"/><path class="st0" d="M194.8 61.4v-1.6c0-1-0.2-1.3-1.1-1.3v-0.6h4.4v0.6c-1 0-1.1 0.3-1.1 1.1v4.5c0 0.9 0.1 1.3 1.1 1.3V66h-4.4v-0.6c0.8 0 1.1-0.2 1.1-1.3v-1.9h-3.9v1.9c0 0.8 0.1 1.2 1.1 1.2v0.6h-4.5v-0.6c0.9 0 1.1-0.2 1.1-1.3v-4.4c0-1-0.3-1.2-1.1-1.2v-0.6h4.5v0.6c-0.9 0.1-1.1 0.2-1.1 1.2v1.7L194.8 61.4 194.8 61.4z"/><path class="st0" d="M201.6 66v-0.6c0.9 0 1.1-0.3 1.1-1.2v-4.5c0-0.9-0.2-1.2-1.1-1.2v-0.6h4.5v0.6c-1 0-1.2 0.3-1.2 1.2v4.4c0 0.8 0.1 1.2 1.2 1.2v0.6h-4.5V66z"/><path class="st0" d="M213.9 57.9v0.6c-1.1 0-1.3 0.2-1.3 1.2v4.5c0 0.8 0.1 0.9 1 0.9h1c0.8 0 1.1 0 2.2-1.5h0.6l-1 2.4h-7.2v-0.6c1.1 0 1.3-0.3 1.3-1.3v-4.4c0-0.9-0.1-1.2-1.3-1.2v-0.6H213.9z"/><path class="st0" d="M223.6 57.9v0.6c-1.1 0-1.3 0.2-1.3 1.2v4.5c0 0.8 0.1 0.9 1 0.9h1c0.8 0 1.1 0 2.2-1.5h0.6l-1 2.4h-7.2v-0.6c1.1 0 1.3-0.3 1.3-1.3v-4.4c0-0.9-0.1-1.2-1.3-1.2v-0.6H223.6z"/></svg>